<svg id="visual" viewBox="0 0 900 600" width="900" height="600" xmlns="http://www.w3.org/2000/svg" xmlns:xlink="http://www.w3.org/1999/xlink" version="1.1"><rect x="0" y="0" width="900" height="600" fill="#b74141"></rect><defs><linearGradient id="grad1_0" x1="33.3%" y1="0%" x2="100%" y2="100%"><stop offset="20%" stop-color="#b74141" stop-opacity="1"></stop><stop offset="80%" stop-color="#b74141" stop-opacity="1"></stop></linearGradient></defs><defs><linearGradient id="grad2_0" x1="0%" y1="0%" x2="66.7%" y2="100%"><stop offset="20%" stop-color="#b74141" stop-opacity="1"></stop><stop offset="80%" stop-color="#b74141" stop-opacity="1"></stop></linearGradient></defs><g transform="translate(900, 0)"><path d="M0 216.3C-18.2 195.6 -36.4 174.8 -53.2 163.6C-69.9 152.4 -85.1 150.7 -107.6 148.1C-130.1 145.4 -159.9 141.9 -175 127.2C-190.1 112.4 -190.5 86.4 -195 63.3C-199.4 40.3 -207.9 20.1 -216.3 0L0 0Z" fill="#001220"></path></g><g transform="translate(0, 600)"><path d="M0 -216.3C29.3 -223.5 58.6 -230.8 66.9 -205.7C75.1 -180.7 62.3 -123.5 79.4 -109.2C96.4 -94.9 143.2 -123.6 169.1 -122.8C195 -122.1 200.1 -91.8 204.5 -66.4C208.9 -41.1 212.6 -20.5 216.3 0L0 0Z" fill="#001220"></path></g></svg>